<svg id="e8736ba3-b135-4523-8a08-b3df91da3c06" data-name="Capa 3" xmlns="http://www.w3.org/2000/svg" width="5907.7" height="874.65" viewBox="0 0 5907.7 874.65">
  <defs>
    <style>
      .ab0fe59e-3d20-467e-81d8-bad59386c696 {
        fill: #fff;
      }

      .b5e2c499-b002-4d98-b62e-552893afd8d0 {
        fill: none;
      }
    </style>
  </defs>
  <title>MorphexFullLogo</title>
  <g>
    <path class="ab0fe59e-3d20-467e-81d8-bad59386c696" d="M1523.88,65.31c13.7.62,28.75.79,43.71,2.08a522.16,522.16,0,0,1,84.11,13.74,470.76,470.76,0,0,1,101.81,38.92q93.16,48.53,153.26,134.64a424.08,424.08,0,0,1,51.69,101.18A432,432,0,0,1,1977.22,430c5.13,31.33,6.4,62.85,5.21,94.49a423.43,423.43,0,0,1-208.1,349.64,472.42,472.42,0,0,1-85.13,39.33A441.83,441.83,0,0,1,1631,929.33c-12.53,2.53-25.16,4.4-37.82,6.21-19.36,2.77-38.82,3.55-58.32,4.22-17.28.59-34.52-.27-51.76-1.11a254.57,254.57,0,0,1-28.61-2.89c-9.78-1.58-19.66-2.6-29.39-4.38a455.41,455.41,0,0,1-74.86-20.16,469.86,469.86,0,0,1-79.55-37.71,419.36,419.36,0,0,1-145.34-145.76,434.53,434.53,0,0,1-39.36-86,444.36,444.36,0,0,1-16.21-66.91c-1.24-7.55-1.75-15.22-2.77-22.81-2.44-18.09-2.51-36.28-2.49-54.48a440.91,440.91,0,0,1,4-57.27,422.24,422.24,0,0,1,8-43.26,410.35,410.35,0,0,1,26.25-75.88,442.7,442.7,0,0,1,31.26-57.05,420,420,0,0,1,87.31-97.34,429.73,429.73,0,0,1,87.45-54.91,465.41,465.41,0,0,1,76.23-28.42,491.47,491.47,0,0,1,57.2-12c8.52-1.28,17.16-1.81,25.72-2.92C1486.11,66.18,1504.35,66.25,1523.88,65.31Zm-.43,665.89c4.36-.23,10.42-.62,16.49-.84a199.68,199.68,0,0,0,34.18-4.54,232.16,232.16,0,0,0,60.22-21.73c38.84-20.39,69.78-49.21,92.2-87a213.4,213.4,0,0,0,25.14-62.87,238.68,238.68,0,0,0-2.88-113.74,220.77,220.77,0,0,0-34.9-70.93c-21.54-29.38-48.8-52.12-81.19-68.75A235.72,235.72,0,0,0,1577,280.53a271.32,271.32,0,0,0-44.64-5.85c-13.8-.79-27.53.24-41.15,1.93a220,220,0,0,0-40.22,8.82,237.68,237.68,0,0,0-59.55,28.26,226.57,226.57,0,0,0-72.42,77.85,219,219,0,0,0-28.94,107.92,267.17,267.17,0,0,0,1.45,30.59,213.72,213.72,0,0,0,8.6,41.17,220.09,220.09,0,0,0,20.26,45.38,225.83,225.83,0,0,0,74.16,77.5,235.22,235.22,0,0,0,60.91,27.6,277.35,277.35,0,0,0,27.09,6.19C1495.5,730.31,1508.65,730.55,1523.45,731.2Z" transform="translate(-74.9 -65.31)"/>
    <path class="ab0fe59e-3d20-467e-81d8-bad59386c696" d="M3644.31,503q0-199.74,0-399.48c0-3.83.12-7.66.26-11.49a3.37,3.37,0,0,1,3.24-2.94c2.55-.12,5.11-.22,7.67-.22h193.84c2.55,0,5.11.14,7.66.28a3.2,3.2,0,0,1,2.91,3.18c.08,3.51.13,7,.13,10.53q0,146.1,0,292.19c0,3.51.15,7,.28,10.52a2.81,2.81,0,0,0,2.53,2.4c3.51.12,7,.25,10.53.25H4098.9q30.23,0,60.45,0c2.88,0,5.75-.09,8.63-.22a3.08,3.08,0,0,0,2.87-3.2q.13-5.26.14-10.53,0-145.6,0-291.23c0-3.51,0-7,.12-10.53.06-2.17,1.37-3.41,3.68-3.51,2.56-.1,5.12-.14,7.67-.14q96.45,0,192.88,0c2.88,0,5.75.18,8.62.29a3.71,3.71,0,0,1,2.59,2.53c.08,1.27.22,2.54.24,3.82,0,3.19,0,6.39,0,9.58v796.1c0,3.83,0,7.66-.12,11.49-.07,2.73-1.3,3.83-4.26,3.94-2.23.09-4.47.11-6.71.11h-194.8c-10.37,0-9.94.41-9.94-10q0-159,0-318.06c0-3.5-.12-7-.24-10.52a2.89,2.89,0,0,0-2.41-2.57c-1.59-.13-3.18-.28-4.77-.3-5.44,0-10.88,0-16.31,0H3873.76c-3.2,0-6.4,0-9.6.08-3.43.07-3.93,1.7-4,4.16-.12,3.19-.09,6.39-.09,9.58q0,157.11,0,314.23c0,3.5-.13,7-.24,10.52a2.9,2.9,0,0,1-2.51,2.48c-2.54.17-5.09.34-7.64.35q-21.58,0-43.18,0-74.37,0-148.74,0c-3.51,0-7-.18-10.53-.32a3,3,0,0,1-2.53-2.44c-.12-1.27-.29-2.54-.31-3.81,0-3.19,0-6.39,0-9.58Z" transform="translate(-74.9 -65.31)"/>
    <path class="ab0fe59e-3d20-467e-81d8-bad59386c696" d="M2119,503V102.55c0-3.52.08-7,.18-10.54a3.26,3.26,0,0,1,3.2-2.93c3.19-.13,6.39-.23,9.58-.23q74.85,0,149.7,0,87.81,0,175.61,0a362.36,362.36,0,0,1,74.34,7.29c34.15,7.14,66,20,95,39.57,25.29,17.06,45.77,38.75,62.15,64.35,14.76,23.06,25,48,31.52,74.63a304.91,304.91,0,0,1,8.07,58.72c.8,16.63-.29,33.17-1.95,49.71a257.14,257.14,0,0,1-8.37,44.16c-9.73,34.47-26.61,64.85-52.32,90.07a208.22,208.22,0,0,1-54.75,38.3,270.78,270.78,0,0,1-53,19.47,62.06,62.06,0,0,0-7.23,2.44,1.73,1.73,0,0,0-.53,1.6,35.14,35.14,0,0,0,3,4.86q18.06,23.6,36.18,47.13,40.89,53.19,81.78,106.36L2781.5,881.12q10.8,14.07,21.56,28.15c1.16,1.52,2.21,3.12,3.29,4.7a1.73,1.73,0,0,1-1,2.28,22.66,22.66,0,0,1-2.81.41c-2.56.07-5.12.05-7.68.05q-121.4,0-242.78,0c-14.32,0-10.9,1.66-18.8-10.5q-31.84-49-63.45-98.17t-63.41-98.19q-28.59-44.25-57.23-88.49c-3.29-5.1-6.51-10.24-9.83-15.32a18.4,18.4,0,0,0-2.53-2.77,1.11,1.11,0,0,0-.87-.16,1.2,1.2,0,0,0-.81.46,4.39,4.39,0,0,0-.53,1.74c-.07,3.19-.09,6.39-.09,9.58q0,144.18,0,288.36c0,3.51-.14,7-.25,10.52a2.9,2.9,0,0,1-2.35,2.59c-3.51.15-7,.36-10.53.36q-68.13,0-136.26,0-27.35,0-54.7,0c-2.87,0-5.74-.17-8.61-.33a3,3,0,0,1-2.58-2.41c-.1-1-.23-1.9-.24-2.86,0-3.19,0-6.38,0-9.58ZM2334.56,356.4q0,45,0,90c0,2.87,0,5.74.17,8.61.1,2.39,1.6,3.34,3.76,3.49,1.91.13,3.83.16,5.75.16,9.91,0,19.83-.05,29.74,0a238.62,238.62,0,0,0,40.14-2.79c15.25-2.46,29.94-6.63,43.7-13.75,14.77-7.64,27-18.16,35.82-32.35,7.62-12.19,11.51-25.63,12.91-39.73A121.45,121.45,0,0,0,2504.7,332c-4.74-21.84-15.9-39.45-34.08-52.58-10.75-7.76-22.65-13.06-35.27-16.88a178.86,178.86,0,0,0-46.29-7.31c-16.62-.54-33.26-.22-49.89-.25a7.86,7.86,0,0,0-2.8.53,2.16,2.16,0,0,0-1.26,1.33c-.27,2.85-.52,5.71-.52,8.57Q2334.53,310.9,2334.56,356.4Z" transform="translate(-74.9 -65.31)"/>
    <path class="ab0fe59e-3d20-467e-81d8-bad59386c696" d="M5555.72,648.79c-2,.61-3,2.38-4.09,3.9q-21.6,29.91-43.13,59.86l-68.89,95.63q-35.28,49-70.6,97.93c-2.41,3.34-4.08,7.58-7.71,9.6-4,2.23-8.78,1-13.21,1q-117.08.09-234.14,0c-3.49,0-7.05.55-10.46-.62-.43-.14-1-1.13-.86-1.45a21.79,21.79,0,0,1,2.29-4.12q11-15.11,22.09-30.14,43.14-58.65,86.3-117.31,44-59.84,87.94-119.69L5394.84,516q13-17.78,26.12-35.51c1.11-1.52,2.1-3.14,2.93-4.37,0-2.22-1.09-3.46-2-4.77q-27.14-40.62-54.31-81.23Q5342,351.84,5316.5,313.6q-41-61.32-82.05-122.62-31.95-47.78-63.83-95.62c-.87-1.31-1.59-2.73-2.35-4.11-.38-.67.52-2,1.42-2.06a27.09,27.09,0,0,1,2.84-.31c2.56-.06,5.12,0,7.68,0H5420.1c3.19,0,6.39,0,9.59.1a5.07,5.07,0,0,1,4.59,2.91c2.37,4.52,4.79,9,7.16,13.55q26.46,50.47,52.9,100.95,22.42,42.85,44.84,85.7c1.47,2.81,3.24,5.47,5,8.13.16.25,1.35.23,1.62-.06a33.85,33.85,0,0,0,3.59-4.44q30-46.21,59.85-92.49,34.32-53.1,68.65-106.2c1.21-1.88,2.52-3.69,3.77-5.55a5.6,5.6,0,0,1,4.86-2.54c1.92,0,3.84-.06,5.76-.06h246.6c1.92,0,3.84,0,5.76.09,2.56.09,3.56,1.69,2.32,3.67-.85,1.35-1.7,2.7-2.62,4q-39.32,55.53-78.64,111-40.73,57.47-81.47,114.89l-99.74,140.7q-3,4.29-6.07,8.61c-2.43,3.47-2.44,3.72.24,7.59,3.81,5.51,7.66,11,11.5,16.5l94,134.19q46.73,66.71,93.42,133.42,37.64,53.78,75.24,107.56c9,12.82,18,25.6,27,38.42a34.16,34.16,0,0,1,2.79,5c.16.34-.35,1.2-.78,1.54a3.23,3.23,0,0,1-1.8.53c-2.87.1-5.75.17-8.63.17h-238c-2.24,0-4.48-.11-6.71,0-3.53.18-5.92-1.15-7.82-4.27q-24.2-39.68-48.59-79.2-25.34-41.22-50.64-82.44-25.85-42-51.7-84c-3-4.9-6-9.8-9.1-14.65C5558,650.83,5557.34,649.33,5555.72,648.79Z" transform="translate(-74.9 -65.31)"/>
    <path class="ab0fe59e-3d20-467e-81d8-bad59386c696" d="M2898.69,502.4V106.73c0-2.24,0-4.47,0-6.71.09-11.68-1.11-11.18,11.67-11.18q168.9,0,337.8.08a395.86,395.86,0,0,1,58.31,4.3,367.71,367.71,0,0,1,41.31,8.4c31.47,8.5,60.74,21.66,86.85,41.41a222.67,222.67,0,0,1,64.63,77.22c12.47,24.37,20.31,50.18,25.22,77.05,5.78,31.64,6.4,63.48,4.92,95.44a318.43,318.43,0,0,1-7.37,54c-6.74,30.49-17.81,59.26-35,85.48a220.94,220.94,0,0,1-66.21,65.65c-21.69,13.89-45.11,23.85-69.89,30.86a348.37,348.37,0,0,1-54.5,10.67,410.33,410.33,0,0,1-48.83,2.75q-60-.15-119.95,0c-14.32,0-13.08-1.53-13.08,12.62q0,124.07,0,248.13c0,3.51-.11,7-.24,10.53a3.31,3.31,0,0,1-3.11,3c-2.24.12-4.48.21-6.71.21l-195.77,0c-10.33,0-10,0-10-10q0-84.3,0-168.61Zm215.84-136.69q0,44.54,0,89.07c0,2.87,0,5.75.06,8.62.11,4,1.19,5.1,5.12,5.23,2.55.08,5.11.06,7.67.06,18.87,0,37.74.11,56.6,0,12.79-.09,25.56-.68,38.2-2.9a125.47,125.47,0,0,0,34.58-10.95c22.2-11.06,36.38-28.69,43-52.38,5.39-19.35,6.1-39,3.16-58.86a104.7,104.7,0,0,0-7-25.79A79.48,79.48,0,0,0,3263.29,280a104.35,104.35,0,0,0-28.23-11.7,180.22,180.22,0,0,0-45.53-5.73q-32.62,0-65.24,0c-2.23,0-4.47.12-6.7.24a3,3,0,0,0-2.61,2.38c-.19,3.17-.42,6.35-.43,9.53Q3114.51,320.23,3114.53,365.71Z" transform="translate(-74.9 -65.31)"/>
    <path class="ab0fe59e-3d20-467e-81d8-bad59386c696" d="M4560.46,502.65q0-200.2,0-400.43c0-3.51.13-7,.24-10.52a3.37,3.37,0,0,1,2.51-2.53c1-.11,1.9-.27,2.85-.29,2.56,0,5.12,0,7.68,0H5019c3.51,0,7,.13,10.54.28a3.33,3.33,0,0,1,3,3.14c.08,1.91.14,3.82.14,5.74q0,82.38,0,164.77c0,1.91-.14,3.82-.27,5.73a3.11,3.11,0,0,1-2.51,2.51,24.68,24.68,0,0,1-2.84.32c-3.2.05-6.4.05-9.6.05q-113.72,0-227.42,0c-15.84,0-14-1.52-14,13.63q-.1,56,0,112.08c0,3.18.17,6.37.31,9.55a3.05,3.05,0,0,0,2.57,2.43c2.55.15,5.1.32,7.65.33,11.83,0,23.67,0,35.5,0h182.32c3.2,0,6.4,0,9.6.13,2.34.07,3.67,1.29,3.74,3.41.11,3.19.15,6.39.15,9.58q0,64.19,0,128.37c0,11.17,0,22.35,0,33.52a36.32,36.32,0,0,1-.56,5.69c-.08.51-.74,1-1.26,1.33a4.11,4.11,0,0,1-1.84.43q-4.8.11-9.6.11h-215.9c-3.2,0-6.39.09-9.58.21a3.16,3.16,0,0,0-2.92,3.19c-.1,2.23-.17,4.47-.17,6.7q0,61.3,0,122.62a71.46,71.46,0,0,0,.49,7.6c0,.49.73,1.11,1.25,1.32a8.34,8.34,0,0,0,2.79.59c3.19.08,6.39.09,9.59.09h229.34c3.2,0,6.4,0,9.59.13a3.55,3.55,0,0,1,3.49,3.76c.09,2.55.11,5.1.11,7.66q0,79.51,0,159c0,2.87-.1,5.74-.22,8.61a3.47,3.47,0,0,1-3.19,3c-1.27.1-2.55.17-3.83.18-2.56,0-5.12,0-7.67,0q-221.19,0-442.37,0c-17.18,0-14.9,2.2-14.9-14.55Q4560.41,702.39,4560.46,502.65Z" transform="translate(-74.9 -65.31)"/>
    <path class="ab0fe59e-3d20-467e-81d8-bad59386c696" d="M75.07,187.72c-.06-2.07-.16-4.3-.16-6.52q0-50.77,0-101.55c0-9.11-.16-9,8.91-9h190c2.22,0,4.44.15,6.83.23,2.5,3,5,5.91,7.36,8.87q57.39,71.31,114.75,142.63,46.55,57.89,93.07,115.78c1.8,2.24,3.68,4.42,5.54,6.6a2.39,2.39,0,0,0,3.41-.2c1.67-1.93,3.35-3.86,5-5.84q15.38-19,30.72-38L688.91,117.54q16.59-20.48,33.16-41c1.41-1.74,2.87-3.43,4.51-5.37,1.73-.17,3.61-.5,5.49-.52,9.28-.05,18.55,0,27.83,0H921.12c3.2,0,6.39.13,9.59.24a2.87,2.87,0,0,1,2.48,2.45c.1,1,.24,1.9.27,2.85,0,1.92,0,3.83,0,5.75q0,48.39,0,96.76c0,11.1.83,8.68-6.1,17.25q-67.5,83.44-135,166.88Q709.7,464.89,627,566.89,571.82,635,516.66,703.2c-4,5-8.17,9.81-12.27,14.69a2.43,2.43,0,0,1-2.65.14,22.67,22.67,0,0,1-2-2c-4-5-8-10-12-14.94q-56.18-69.81-112.35-139.63-37.23-46.32-74.4-92.67-49.56-61.62-99.18-123.18-46.26-57.5-92.47-115-16.2-20.17-32.43-40.33C76.28,189.5,75.77,188.7,75.07,187.72Z" transform="translate(-74.9 -65.31)"/>
    <path class="ab0fe59e-3d20-467e-81d8-bad59386c696" d="M74.9,635V350.57c0-3.19,0-6.39.08-9.58,0-1.21.82-2.34,1.46-2.12s1.31.32,1.66.74q9,11.14,18,22.38,62.38,78.3,124.74,156.62l71,89.19a37.83,37.83,0,0,1,2.93,3.78,9.93,9.93,0,0,1,1.29,3.54,31.56,31.56,0,0,1,.21,4.77c0,4.47,0,8.94,0,13.41q0,143.16,0,286.34c0,3.5-.11,7-.25,10.52a3.18,3.18,0,0,1-3.13,3c-2.55.11-5.11.19-7.66.19H85.73c-2.55,0-5.11-.09-7.66-.21a3.07,3.07,0,0,1-2.92-3.17Q75,924.68,75,919.42,75,777.21,75,635Z" transform="translate(-74.9 -65.31)"/>
    <path class="ab0fe59e-3d20-467e-81d8-bad59386c696" d="M933.39,635.67V920.18c0,3.2,0,6.39-.11,9.58-.06,2.35-1.26,3.67-3.38,3.74-2.88.1-5.76.14-8.63.14H854.1q-64.77,0-129.54,0c-3.19,0-6.38-.17-9.57-.32a2.93,2.93,0,0,1-2.48-2.5c-.12-1.9-.25-3.82-.25-5.73,0-7.34,0-14.69,0-22V626.21c0-2.87.1-5.75,0-8.62a10.33,10.33,0,0,1,2.54-7q9.87-12.36,19.69-24.75L846.76,444.94q39.42-49.45,78.83-98.93,1.78-2.25,3.64-4.45c1.34-1.58,2.46-2,3.11-1.48,1.14.94,1.07,2.21,1.1,3.42.07,3.51.06,7,.06,10.54V635.67Z" transform="translate(-74.9 -65.31)"/>
    <path class="b5e2c499-b002-4d98-b62e-552893afd8d0" d="M2334.56,356.4q0-45.51,0-91c0-2.86.25-5.72.52-8.57a2.16,2.16,0,0,1,1.26-1.33,7.86,7.86,0,0,1,2.8-.53c16.63,0,33.27-.29,49.89.25a178.86,178.86,0,0,1,46.29,7.31c12.62,3.82,24.52,9.12,35.27,16.88,18.18,13.13,29.34,30.74,34.08,52.58a121.45,121.45,0,0,1,1.86,38.11c-1.4,14.1-5.29,27.54-12.91,39.73-8.87,14.19-21.05,24.71-35.82,32.35-13.76,7.12-28.45,11.29-43.7,13.75a238.62,238.62,0,0,1-40.14,2.79c-9.91-.07-19.83,0-29.74,0-1.92,0-3.84,0-5.75-.16-2.16-.15-3.66-1.1-3.76-3.49-.12-2.87-.17-5.74-.17-8.61Q2334.55,401.43,2334.56,356.4Z" transform="translate(-74.9 -65.31)"/>
    <path class="b5e2c499-b002-4d98-b62e-552893afd8d0" d="M3114.53,365.71q0-45.49,0-91c0-3.18.24-6.36.43-9.53a3,3,0,0,1,2.61-2.38c2.23-.12,4.47-.24,6.7-.24q32.63,0,65.24,0a180.22,180.22,0,0,1,45.53,5.73,104.35,104.35,0,0,1,28.23,11.7,79.48,79.48,0,0,1,32.61,37.78,104.7,104.7,0,0,1,7,25.79c2.94,19.82,2.23,39.51-3.16,58.86-6.61,23.69-20.79,41.32-43,52.38a125.47,125.47,0,0,1-34.58,10.95c-12.64,2.22-25.41,2.81-38.2,2.9-18.86.14-37.73,0-56.6,0-2.56,0-5.12,0-7.67-.06-3.93-.13-5-1.22-5.12-5.23-.08-2.87-.06-5.75-.06-8.62Q3114.53,410.25,3114.53,365.71Z" transform="translate(-74.9 -65.31)"/>
  </g>
</svg>
